<svg id="Calque_1" data-name="Calque 1" xmlns="http://www.w3.org/2000/svg" viewBox="0 0 4381.25 2053.11"><path d="M372.46,2927.21q62.9-1.14,125.79-4.4c15-.77,29.33,6.81,39.19,20.81a47.28,47.28,0,0,0,15.94,14c14.28,8,33.8,11.14,58.54,9.21s43.23-7.19,55.5-15.56,18.39-19.84,18.39-34.35q0-19.3-16-29.51c-10.67-6.83-27.09-11-49.26-12.83q-68.46-5.41-136.92-13.14c-56.73-6.17-99.43-25-128.11-55s-43-70.81-43-121.7c0-67.94,21.7-117.3,65.1-149.24s112.54-49.43,207.45-56.14c98.52-7.09,171.78.07,219.76,25.5A137.91,137.91,0,0,1,848,2539.79c29.29,35.94,7.26,104.57-35.43,109.9q-56.15,6.92-112.29,12.47c-15.45,1.52-29.64-6.86-39.26-21.52a49.79,49.79,0,0,0-18.39-16.52c-15.57-8.39-37.43-11.46-65.58-9.51-20.47,1.41-36.58,6-48.3,13.94s-17.6,18-17.6,30.32q0,17.25,13.6,25.54c9.06,5.51,27.88,10.07,56.46,13.27q83.49,9.32,167,15.34c52.25,3.86,91.28,18.26,117.08,44.23S904,2820.93,904,2870.77c0,74.41-25.81,132.92-77.41,174.25s-133,68.4-244.08,76.34c-88.29,6.21-156.06-9.29-203.29-43.44a167,167,0,0,1-46.12-49.81C308.62,2987.11,332.21,2927.91,372.46,2927.21Z" transform="translate(-312.5 -1615.73)"/><path d="M1083.94,2992.83v-357.6c0-26.44-17.56-44.75-39.21-41.07q-50.78,8.63-101.54,16.27c-21.65,3.26-39.21-15.69-39.21-42.13v-58.25c0-26.44,17.56-50.35,39.21-53.61,158.3-23.8,316.6-55.06,474.91-91.51,21.65-5,39.21,12.29,39.21,38.73v58.26c0,26.43-17.56,52-39.21,57q-51.11,11.76-102.21,22.79c-21.66,4.66-39.21,29.76-39.21,56.19v357.61c0,26.43-17.56,51.56-39.21,56q-57.17,11.61-114.32,22.15C1101.49,3037.61,1083.94,3019.27,1083.94,2992.83Z" transform="translate(-312.5 -1615.73)"/><path d="M1881.81,2245.45q63.15-17.73,101.13-21.16t59.24,6.45q27.15,12.21,41.4,41.88t14.24,74q0,53.8-21.28,100.91-18.37,40.68-48.7,67.8c-3.66,3.28-3.68,9.78,0,11q24.31,8.14,35.16,25.79,12.93,21.06,15.22,83.21.33,6.88.65,19.1c1.34,34.28,1.88,64.49,2.08,88.22.25,29-18.48,58.28-41.68,65q-55.62,16.22-111.26,32c-21.49,6.1-39.48-9.38-41.41-35.69q-.88-12.11-1.15-27-.66-32.25-2.29-49.45-3-32.43-17.84-41.82t-49.91.28q-53.55,14.73-107.09,28.92c-2.68.71-4.84,4-4.85,7.37v127c0,28.8-18.61,57.09-41.57,63.06q-53.5,13.92-107,27.2c-23,5.69-41.58-13.16-41.58-42V2416.2c0-40.76,26.33-80.16,58.81-88.28Q1727,2289.21,1881.81,2245.45Zm-178.38,284.94c0,14.42,9.32,23.65,20.82,20.59q44.25-11.79,88.5-24,42.87-11.78,60.38-29.48t17.51-47.61q0-29.57-16.52-36.64c-11-4.71-33-2.46-65.95,6.58q-42,11.52-83.92,22.7c-11.5,3.07-20.81,17.22-20.82,31.64Z" transform="translate(-312.5 -1615.73)"/><path d="M2133.81,2678.73q76.58-235.8,153.14-472.08c15.94-49.17,52.19-88.85,92.27-101q56.84-17.28,113.66-34.64c41-12.5,77.87,6.25,93.24,47.41q71.27,190.89,142.53,381.95c17,45.69-14,110.49-59.42,124.27q-35.19,10.68-70.37,21.39c-27.49,8.37-51.92-5.32-60.72-34h0c-1.17-3.82-4.41-5.64-8.06-4.52Q2429,2638.23,2328,2669c-3.58,1.08-6.77,4.74-8,9.16l-.61,2.22c-9.24,33.29-33.29,60.85-60.2,69q-33.28,10-66.58,20C2146.49,2783.06,2115.47,2735.2,2133.81,2678.73ZM2390.9,2500q39.81-12.11,79.61-24.26c11-3.35,18.74-18.77,15.17-30.23l-38.61-124.28c-4.9-15.77-25.07-9.86-30.24,8.87q-20.49,74.27-41,148.54C2372,2492.37,2379.78,2503.35,2390.9,2500Z" transform="translate(-312.5 -1615.73)"/><path d="M2133.6,3390.18q76.58-235.8,153.14-472.07c15.94-49.17,52.19-88.85,92.27-101q56.84-17.28,113.66-34.64c41-12.5,77.87,6.25,93.23,47.4q71.26,190.9,142.53,382c17,45.68-14,110.49-59.42,124.27q-35.18,10.67-70.36,21.39c-27.49,8.37-51.92-5.32-60.72-34h0c-1.17-3.82-4.41-5.64-8.07-4.53q-101,30.83-202.06,61.53c-3.58,1.09-6.77,4.75-8,9.17-.2.74-.41,1.48-.61,2.22-9.24,33.29-33.29,60.85-60.2,68.95q-33.3,10-66.58,20C2146.28,3494.51,2115.26,3446.66,2133.6,3390.18Zm257.09-178.76,79.61-24.26c11-3.36,18.74-18.77,15.17-30.23l-38.61-124.29c-4.9-15.77-25.07-9.85-30.24,8.88q-20.51,74.27-41,148.53C2371.82,3203.82,2379.56,3214.8,2390.69,3211.42Z" transform="translate(-312.5 -1615.73)"/><path d="M2785.17,2516.75V2068.88c0-44,27.58-88,61.6-98.14q60.32-18,120.63-35.54c20.54-6,39.74,1.72,51.17,20.51q70.77,116.3,141.55,233.3c6.4,10.58,21.3.6,21.3-14.28v-220.6c0-44,27.58-87.36,61.6-96.55q26.45-7.15,52.88-14.16c34-9,61.6,19.56,61.6,63.59v447.88c0,44-27.58,86.83-61.6,95.86q-55.38,14.68-110.77,30c-19.85,5.47-38.49-1.73-50.06-19.37Q3055.66,2340.2,2976.24,2220c-6.17-9.34-19.75.27-19.75,14v232c0,44-27.58,87.77-61.6,97.82q-24.06,7.11-48.12,14.27C2812.75,2588.19,2785.17,2560.78,2785.17,2516.75Z" transform="translate(-312.5 -1615.73)"/><path d="M3947,2252.61c-2.58-6.93-9.48-8-14.3-2.26q-28,33.43-68.63,55.36c-31.64,17.15-71.1,30.41-118.39,40.19-99.64,20.67-174.83,11.45-225.56-30.24s-76.09-114.78-76.09-220.21c0-105.64,25.36-191.81,76.09-257.77s125.92-110.47,225.56-131.14c83.87-17.35,151.08-10.31,201.61,19.57,29.08,17.2,50.9,40.87,65.45,70.74,15.7,32.24-2.86,79.73-32.92,84.71q-57.58,9.59-115.16,20.38c-12.4,2.32-24.25-3.11-31.56-15.26q-11.51-19.12-27.24-28.46-22.89-13.54-55.33-6.91c-36.18,7.47-65.18,29.48-87,65.75s-32.74,81-32.74,134.15q0,80.51,32.29,117.87c21.52,25,51.58,33.32,90.19,25.37q43.35-8.91,72.15-35.77a114.06,114.06,0,0,0,27.63-38.91c5-11.68-.76-24.56-10.11-22.77q-16.23,3.09-32.45,6.28c-12.18,2.39-22.05-9-22.05-25.49v-71.67c0-16.49,9.87-31.85,22.05-34.24q103.15-20.27,206.31-36.8c12.18-1.94,22,9.91,22,26.4v285.2c0,16.49-9.87,31.39-22,33.34q-21.11,3.36-42.21,6.89c-8.52,1.43-16.28-3.9-19.93-13.71Z" transform="translate(-312.5 -1615.73)"/><path d="M4159.1,2223.21V1688.15c0-20,13-37.85,29.11-39.85,153.4-19.11,306.81-30.66,460.21-32.57,16.08-.21,29.12,15.93,29.12,35.89v76.78c0,20-13,36.19-29.12,36.39q-135.32,1.7-270.63,13c-16.08,1.31-29.12,18.66-29.12,38.61h0c0,20,13,35,29.12,33.66q104.05-8.49,208.1-11.64c16.08-.47,29.12,15.44,29.12,35.39v77.61c0,20-13,36.41-29.12,36.88q-104.05,3-208.1,11.64c-16.08,1.31-29.12,18.66-29.12,38.62v7.39c0,20,13,35,29.12,33.66,95.61-7.81,191.23-12.35,286.84-13.12,16.08-.14,29.12,16.06,29.12,36v84.18c0,20-13,36.12-29.12,36.25-158.8,1.28-317.61,13-476.42,32.74C4172.13,2257.63,4159.1,2243.17,4159.1,2223.21Z" transform="translate(-312.5 -1615.73)"/><path d="M1503.7,3110.37c0-22.6,18.32-45.34,40.92-50.91q131-32.31,261.89-68.4c98-26.9,172.59-22.54,223.91,14.43s77,104.93,77,204.32q0,148.62-76.66,248.52c-51.11,66.44-125.85,113.87-224.23,140.88q-131,35.91-261.89,68.4c-22.6,5.57-40.92-8.33-40.92-30.94Zm183,104.49v214.22c0,22.6,18.32,36.12,40.92,30.09q25-6.69,50.11-13.49c47.48-12.91,81.5-34,102-62.88s30.83-69.66,30.83-122.22q0-78.43-31.15-104.36c-20.76-17.32-54.67-19.4-101.73-6.61q-25,6.81-50.11,13.49C1705.05,3169.13,1686.72,3192.26,1686.73,3214.86Z" transform="translate(-312.5 -1615.73)"/><path d="M2869.18,3234.7V3122.53a60.9,60.9,0,0,0-7.18-29.67q-83.68-151-167.36-301.52c-15.21-27.34,8.09-71.31,43.48-82q52.27-15.77,104.55-31.34c20.62-6.15,39,1.56,45.59,19.13q31.6,83.67,63.2,167.44c3.54,9.37,18.21,5.23,21.94-6.19q33.82-103.4,67.64-206.65c6.89-21.05,25-38.95,45.28-44.69q50-14.17,99.95-27.94c35.52-9.78,58.81,21.09,43.37,57.24q-84.87,198.7-169.74,398.64a88.24,88.24,0,0,0-7.37,34.3v111.94c0,23.62-19.15,48.23-42.77,55.06q-48.9,14.11-97.82,28.53C2888.33,3271.78,2869.18,3258.32,2869.18,3234.7Z" transform="translate(-312.5 -1615.73)"/></svg>